# xmcd CD database file
#
# Track frame offsets:
#	150
#	21957
#	40285
#	93610
#	117855
#	134157
#	145305
#	164076
#	178553
#	202518
#	225828
#	236914
#	274616
#
# Disc length: 3744 seconds
#
# Revision: 0
# Processed by: cddbd v1.5.2PL0 Copyright (c) Steve Scherf et al.
# Submitted via: jetAudio 7
#
DISCID=b50e9e0d
DTITLE=Неизвестный исполнитель - Неизвестный альбом
DYEAR=1900
DGENRE=Неизвестный жанр
TTITLE0=Дорожка 1
TTITLE1=Дорожка 2
TTITLE2=Дорожка 3
TTITLE3=Дорожка 4
TTITLE4=Дорожка 5
TTITLE5=Дорожка 6
TTITLE6=Дорожка 7
TTITLE7=Дорожка 8
TTITLE8=Дорожка 9
TTITLE9=Дорожка 10
TTITLE10=Дорожка 11
TTITLE11=Дорожка 12
TTITLE12=Дорожка 13
EXTD=
EXTT0=
EXTT1=
EXTT2=
EXTT3=
EXTT4=
EXTT5=
EXTT6=
EXTT7=
EXTT8=
EXTT9=
EXTT10=
EXTT11=
EXTT12=
PLAYORDER=
